:SAMPLES-PER-SECOND 30
:FULLY-SPECIFIED
:DEGREES
122
root  34.88924222 36.51130256 -14.82444673 8.854235649 -10.05236149 4.507834435
lowerback  -6.830900669 -2.025619984 -1.273100138
upperback  -3.870699883 -2.182709932 -3.943150043
thorax  -0.2577447295 -0.9326919913 -3.494839907
lowerneck  2.511759996 -19.40180016 -13.31219959
upperneck  2.349149942 -26.74270058 13.94419956
head  3.927150011 -13.278018 4.615280151
lclavicle  0 -4.497500157e-015 -2.743230041e-014
lhumerus  -49.46760178 27.51689911 63.10480118
lradius  5.228657756e-007 -6.507048965e-006 30.51950073
lwrist  4.824992743e-007 -3.790274832e-007 -27.77389908
lhand  -0 -36.84529877 -10.55770016
lfingers  90 7.125020027 -90
lthumb  94.76564136 -25.3976495 100.9998888
rclavicle  0 -4.497500157e-015 -2.743230041e-014
rhumerus  -13.83949947 -39.57209778 -0.3640727103
rradius  -5.16745672e-007 2.214343908e-008 77.06159973
rwrist  -0.0001064338358 0.02974390797 -171.7129974
rhand  -1.771433873e-031 4.666210175 -5.528580189
rfingers  -90 -7.125020027 -90
rthumb  -83.97920484 -10.27595217 -59.4066407
rfemur  -13.88288593 16.72503281 11.10298824
rtibia  -1.434440494 -2.690546036 21.45932198
rfoot  0.6477315426 -24.47496986 -32.35386276
rtoes  4.088435913 19.59443019 -102.0318813
lfemur  -8.527916908 -16.8487072 -22.00968742
ltibia  2.682034254 -3.085542679 15.07761097
lfoot  1.29024756 -19.73698807 40.20235443
ltoes  -8.502608511 -18.17000487 -115.6134511
123
root  34.89822328 36.51098116 -14.8191422 8.87362957 -10.11761284 4.534470558
lowerback  -6.806030273 -2.011329889 -1.286429882
upperback  -3.854909897 -2.164390087 -3.955159903
thorax  -0.2573080957 -0.9238759875 -3.498070002
lowerneck  2.414530039 -19.42569923 -13.26249981
upperneck  2.438689947 -26.76870155 13.85709953
head  3.953759909 -13.27680016 4.569859982
lclavicle  0 -4.497500157e-015 -2.743230041e-014
lhumerus  -49.42029953 27.14949989 63.38430023
lradius  5.228657756e-007 -6.507048965e-006 30.69459915
lwrist  4.824992743e-007 -3.790274832e-007 -27.36829948
lhand  -0 -36.83779907 -10.6086998
lfingers  90 7.125020027 -90
lthumb  94.77290516 -25.4479213 100.9965
rclavicle  0 -4.497500157e-015 -2.743230041e-014
rhumerus  -12.93769836 -39.82780075 -0.464189142
rradius  -5.16745672e-007 2.214343908e-008 75.88439941
rwrist  -0.0001064338358 0.02974390797 -171.3059998
rhand  -1.771636887e-031 4.745969772 -5.534170151
rfingers  -90 -7.125020027 -90
rthumb  -83.96118872 -10.27509742 -59.32896236
rfemur  -13.92416859 16.73833656 11.0381813
rtibia  -1.431922555 -2.708322525 21.47524452
rfoot  0.6482871771 -24.48707962 -32.30904007
rtoes  4.083322932 19.59545618 -102.0166354
lfemur  -8.493479729 -16.85666847 -22.08351517
ltibia  2.730400085 -3.111546993 15.0041008
lfoot  1.303524733 -19.661623 40.27383804
ltoes  -8.512215241 -18.16562591 -115.6442615
124
root  34.90475932 36.5088185 -14.81497457 8.861845016 -10.15987396 4.562255383
lowerback  -6.812250614 -2.005110025 -1.285158396
upperback  -3.850330114 -2.155750036 -3.968569994
thorax  -0.2612130046 -0.9196349978 -3.516789913
lowerneck  2.344589949 -19.43090057 -13.2489996
upperneck  2.493730068 -26.77330208 13.83679962
head  3.977269888 -13.27499962 4.552499771
lclavicle  0 -4.497500157e-015 -2.743230041e-014
lhumerus  -49.40969849 26.95779991 63.51509857
lradius  5.228657756e-007 -6.507048965e-006 30.79840279
lwrist  4.824992743e-007 -3.790274832e-007 -27.20870018
lhand  -4.41623136e-031 -36.91009903 -10.67959976
lfingers  90 7.125020027 -90
lthumb  94.82177915 -25.51501397 101.0802528
rclavicle  0 -4.497500157e-015 -2.743230041e-014
rhumerus  -12.10820198 -40.02669907 -0.4409863651
rradius  -5.16745672e-007 2.214343908e-008 74.69760132
rwrist  -0.0001064338358 0.02974390797 -171.2350006
rhand  -1.771502993e-031 4.693520069 -5.419750214
rfingers  -90 -7.125020027 -90
rthumb  -83.91567908 -10.37096669 -59.36972204
rfemur  -13.90979385 16.73820114 10.99212456
rtibia  -1.428408384 -2.741863489 21.46890259
rfoot  0.6515035033 -24.54471207 -32.2684288
rtoes  4.07987854 19.59614658 -102.0063654
lfemur  -8.42606163 -16.8535099 -22.16166306
ltibia  2.786293268 -3.1153934 14.92952251
lfoot  1.326505899 -19.64357758 40.33559418
ltoes  -8.515622349 -18.16407139 -115.6551904
125
root  34.91123229 36.50748486 -14.8105351 8.859164238 -10.20144367 4.589883804
lowerback  -6.797820568 -2.003089905 -1.281589985
upperback  -3.855609894 -2.151570082 -3.992340088
thorax  -0.2752740085 -0.9170876145 -3.538399935
lowerneck  2.430720091 -19.41160011 -13.15719986
upperneck  2.356570005 -26.74020195 13.85169983
head  3.908400059 -13.26379967 4.568669796
lclavicle  0 -4.497500157e-015 -2.743230041e-014
lhumerus  -49.39139938 26.84729958 63.52339935
lradius  5.228657756e-007 -6.507048965e-006 30.78370094
lwrist  4.824992743e-007 -3.790274832e-007 -27.1284008
lhand  -4.413698376e-031 -36.86629868 -10.68089962
lfingers  90 7.125020027 -90
lthumb  94.80151546 -25.51787425 101.0334935
rclavicle  0 -4.497500157e-015 -2.743230041e-014
rhumerus  -11.32620049 -40.14860153 -0.4183350503
rradius  -5.16745672e-007 2.214343908e-008 73.57550049
rwrist  -0.0001064338358 0.02974390797 -171.0630035
rhand  -1.771358111e-031 4.636089802 -5.488780022
rfingers  -90 -7.125020027 -90
rthumb  -83.96649753 -10.30875273 -59.43245224
rfemur  -13.90375805 16.73528862 10.94402122
rtibia  -1.425521851 -2.76903224 21.4610157
rfoot  0.6626862884 -24.5814724 -32.2223053
rtoes  4.079629967 19.59619638 -102.0056242
lfemur  -8.399265289 -16.8692379 -22.22817802
ltibia  2.818748951 -3.159476519 14.90033817
lfoot  1.330833435 -19.55592537 40.35480881
ltoes  -8.559300695 -18.14407424 -115.7953768
126
root  34.91890675 36.50731365 -14.80601003 8.842315674 -10.24401283 4.630743027
lowerback  -6.817569733 -2.0025599 -1.285729766
upperback  -3.846460104 -2.148880005 -4.005710125
thorax  -0.2551380098 -0.9153959751 -3.550620079
lowerneck  2.454129934 -19.38809967 -13.08930016
upperneck  2.251169682 -26.70100212 13.89550018
head  3.865420103 -13.24559975 4.586880207
lclavicle  0 -4.497500157e-015 -2.743230041e-014
lhumerus  -49.37279892 26.8791008 63.46049881
lradius  5.228657756e-007 -6.507048965e-006 30.75040054
lwrist  4.824992743e-007 -3.790274832e-007 -27.14949989
lhand  -0 -36.80270004 -10.54679966
lfingers  90 7.125020027 -90
lthumb  94.74346546 -25.38839339 100.9533507
rclavicle  0 -4.497500157e-015 -2.743230041e-014
rhumerus  -10.6243 -40.31790543 -0.3851811588
rradius  -5.16745672e-007 2.214343908e-008 72.6332016
rwrist  -0.0001064338358 0.02974390797 -170.4129944
rhand  -1.77079904e-031 4.407390118 -5.549409866
rfingers  -90 -7.125020027 -90
rthumb  -84.05735544 -10.24530881 -59.66219061
rfemur  -13.89073658 16.73749542 10.88452435
rtibia  -1.423053741 -2.798737526 21.45622635
rfoot  0.6637629867 -24.61853027 -32.19610596
rtoes  4.04343648 19.60341374 -101.8977284
lfemur  -8.354281425 -16.86768532 -22.32007599
ltibia  2.861950159 -3.197237968 14.8584547
lfoot  1.336889863 -19.48927879 40.36405563
ltoes  -8.574203639 -18.13722208 -115.8432422
127
root  34.92759645 36.50693818 -14.8022479 8.851306915 -10.30166435 4.652452469
lowerback  -6.820670128 -1.98842001 -1.295649886
upperback  -3.827990055 -2.128489971 -4.02862978
thorax  -0.2338089943 -0.9143730998 -3.567980051
lowerneck  2.455960035 -19.38190079 -13.04990005
upperneck  2.197249651 -26.68889999 13.93550014
head  3.848010063 -13.23919964 4.598120213
lclavicle  0 -4.497500157e-015 -2.743230041e-014
lhumerus  -49.33409882 26.89559937 63.41719818
lradius  5.228657756e-007 -6.507048965e-006 30.71519852
lwrist  4.824992743e-007 -3.790274832e-007 -27.18849945
lhand  -4.41004756e-031 -36.8030014 -10.61400032
lfingers  90 7.125020027 -90
lthumb  94.7577538 -25.45434248 100.9597633
rclavicle  0 -4.497500157e-015 -2.743230041e-014
rhumerus  -9.945590019 -40.47979736 -0.363825798
rradius  -5.16745672e-007 2.214343908e-008 71.57009888
rwrist  -0.0001064338358 0.02974390797 -170.1190033
rhand  -1.770994413e-031 4.488649845 -5.377150059
rfingers  -90 -7.125020027 -90
rthumb  -83.94758481 -10.39783771 -59.56669466
rfemur  -13.9083252 16.74781609 10.83335972
rtibia  -1.421631813 -2.823259115 21.45447731
rfoot  0.6841619015 -24.63715363 -32.13365173
rtoes  4.052779221 19.60155716 -101.9255763
lfemur  -8.415411949 -16.87621689 -22.34414673
ltibia  2.834939241 -3.251237154 14.93093777
lfoot  1.336608887 -19.43453598 40.35506821
ltoes  -8.559267937 -18.14408928 -115.7952716
128
root  34.9356824 36.50614821 -14.79837913 8.866495132 -10.34600449 4.681860924
lowerback  -6.821990013 -1.993379951 -1.302129984
upperback  -3.80505991 -2.134109974 -4.049320221
thorax  -0.2102780044 -0.9138643146 -3.586610079
lowerneck  2.405659914 -19.38100052 -12.98709965
upperneck  2.203839779 -26.68199921 13.93690014
head  3.849159956 -13.2322998 4.58795023
lclavicle  0 -4.497500157e-015 -2.743230041e-014
lhumerus  -49.30899811 26.82320023 63.4239006
lradius  5.228657756e-007 -6.507048965e-006 30.7262001
lwrist  4.824992743e-007 -3.790274832e-007 -27.1053009
lhand  -4.411234421e-031 -36.82360077 -10.76970005
lfingers  90 7.125020027 -90
lthumb  94.80029511 -25.60651718 100.9959929
rclavicle  0 -4.497500157e-015 -2.743230041e-014
rhumerus  -9.140098572 -40.69609833 -0.4589070082
rradius  -5.16745672e-007 2.214343908e-008 70.36190033
rwrist  -0.0001064338358 0.02974390797 -170.0420074
rhand  -1.771374495e-031 4.642620087 -5.135449886
rfingers  -90 -7.125020027 -90
rthumb  -83.78197454 -10.61317891 -59.39288799
rfemur  -13.93015003 16.69325066 10.77986717
rtibia  -1.422511578 -2.863939524 21.45875359
rfoot  0.6833535433 -24.69832993 -32.06783295
rtoes  4.080411244 19.59603984 -102.0079537
lfemur  -8.406618118 -16.98717308 -22.40885925
ltibia  2.863839865 -3.32437849 14.90058708
lfoot  1.32693541 -19.27395439 40.40789032
ltoes  -8.567206252 -18.14044123 -115.8207658
